<?xml version="1.0" encoding="utf-8" standalone="no"?>
<!DOCTYPE svg PUBLIC "-//W3C//DTD SVG 1.1//EN"
  "http://www.w3.org/Graphics/SVG/1.1/DTD/svg11.dtd">
<svg xmlns:xlink="http://www.w3.org/1999/xlink" width="720pt" height="288pt" viewBox="0 0 720 288" xmlns="http://www.w3.org/2000/svg" version="1.1">
 <metadata>
  <rdf:RDF xmlns:dc="http://purl.org/dc/elements/1.1/" xmlns:cc="http://creativecommons.org/ns#" xmlns:rdf="http://www.w3.org/1999/02/22-rdf-syntax-ns#">
   <cc:Work>
    <dc:type rdf:resource="http://purl.org/dc/dcmitype/StillImage"/>
    <dc:date>2024-11-10T18:01:41.210392</dc:date>
    <dc:format>image/svg+xml</dc:format>
    <dc:creator>
     <cc:Agent>
      <dc:title>Matplotlib v3.9.2, https://matplotlib.org/</dc:title>
     </cc:Agent>
    </dc:creator>
   </cc:Work>
  </rdf:RDF>
 </metadata>
 <defs>
  <style type="text/css">*{stroke-linejoin: round; stroke-linecap: butt}</style>
 </defs>
 <g id="figure_1">
  <g id="patch_1">
   <path d="M 0 288 
L 720 288 
L 720 0 
L 0 0 
z
" style="fill: #ffffff"/>
  </g>
  <g id="axes_1">
   <g id="patch_2">
    <path d="M 47.38125 246.565625 
L 709.2 246.565625 
L 709.2 10.8 
L 47.38125 10.8 
z
" style="fill: #ffffff"/>
   </g>
   <g id="matplotlib.axis_1">
    <g id="xtick_1">
     <g id="line2d_1">
      <path d="M 56.645463 246.565625 
L 56.645463 10.8 
" clip-path="url(#p67b358ada1)" style="fill: none; stroke: #b0b0b0; stroke-width: 0.8; stroke-linecap: square"/>
     </g>
     <g id="line2d_2">
      <defs>
       <path id="mce73c6259a" d="M 0 0 
L 0 3.5 
" style="stroke: #000000; stroke-width: 0.8"/>
      </defs>
      <g>
       <use xlink:href="#mce73c6259a" x="56.645463" y="246.565625" style="stroke: #000000; stroke-width: 0.8"/>
      </g>
     </g>
     <g id="text_1">
      <!-- 0.0 -->
      <g transform="translate(48.693901 261.164062) scale(0.1 -0.1)">
       <defs>
        <path id="DejaVuSans-30" d="M 2034 4250 
Q 1547 4250 1301 3770 
Q 1056 3291 1056 2328 
Q 1056 1369 1301 889 
Q 1547 409 2034 409 
Q 2525 409 2770 889 
Q 3016 1369 3016 2328 
Q 3016 3291 2770 3770 
Q 2525 4250 2034 4250 
z
M 2034 4750 
Q 2819 4750 3233 4129 
Q 3647 3509 3647 2328 
Q 3647 1150 3233 529 
Q 2819 -91 2034 -91 
Q 1250 -91 836 529 
Q 422 1150 422 2328 
Q 422 3509 836 4129 
Q 1250 4750 2034 4750 
z
" transform="scale(0.015625)"/>
        <path id="DejaVuSans-2e" d="M 684 794 
L 1344 794 
L 1344 0 
L 684 0 
L 684 794 
z
" transform="scale(0.015625)"/>
       </defs>
       <use xlink:href="#DejaVuSans-30"/>
       <use xlink:href="#DejaVuSans-2e" x="63.623047"/>
       <use xlink:href="#DejaVuSans-30" x="95.410156"/>
      </g>
     </g>
    </g>
    <g id="xtick_2">
     <g id="line2d_3">
      <path d="M 98.282378 246.565625 
L 98.282378 10.8 
" clip-path="url(#p67b358ada1)" style="fill: none; stroke: #b0b0b0; stroke-width: 0.8; stroke-linecap: square"/>
     </g>
     <g id="line2d_4">
      <g>
       <use xlink:href="#mce73c6259a" x="98.282378" y="246.565625" style="stroke: #000000; stroke-width: 0.8"/>
      </g>
     </g>
     <g id="text_2">
      <!-- 0.2 -->
      <g transform="translate(90.330815 261.164062) scale(0.1 -0.1)">
       <defs>
        <path id="DejaVuSans-32" d="M 1228 531 
L 3431 531 
L 3431 0 
L 469 0 
L 469 531 
Q 828 903 1448 1529 
Q 2069 2156 2228 2338 
Q 2531 2678 2651 2914 
Q 2772 3150 2772 3378 
Q 2772 3750 2511 3984 
Q 2250 4219 1831 4219 
Q 1534 4219 1204 4116 
Q 875 4013 500 3803 
L 500 4441 
Q 881 4594 1212 4672 
Q 1544 4750 1819 4750 
Q 2544 4750 2975 4387 
Q 3406 4025 3406 3419 
Q 3406 3131 3298 2873 
Q 3191 2616 2906 2266 
Q 2828 2175 2409 1742 
Q 1991 1309 1228 531 
z
" transform="scale(0.015625)"/>
       </defs>
       <use xlink:href="#DejaVuSans-30"/>
       <use xlink:href="#DejaVuSans-2e" x="63.623047"/>
       <use xlink:href="#DejaVuSans-32" x="95.410156"/>
      </g>
     </g>
    </g>
    <g id="xtick_3">
     <g id="line2d_5">
      <path d="M 139.919292 246.565625 
L 139.919292 10.8 
" clip-path="url(#p67b358ada1)" style="fill: none; stroke: #b0b0b0; stroke-width: 0.8; stroke-linecap: square"/>
     </g>
     <g id="line2d_6">
      <g>
       <use xlink:href="#mce73c6259a" x="139.919292" y="246.565625" style="stroke: #000000; stroke-width: 0.8"/>
      </g>
     </g>
     <g id="text_3">
      <!-- 0.4 -->
      <g transform="translate(131.967729 261.164062) scale(0.1 -0.1)">
       <defs>
        <path id="DejaVuSans-34" d="M 2419 4116 
L 825 1625 
L 2419 1625 
L 2419 4116 
z
M 2253 4666 
L 3047 4666 
L 3047 1625 
L 3713 1625 
L 3713 1100 
L 3047 1100 
L 3047 0 
L 2419 0 
L 2419 1100 
L 313 1100 
L 313 1709 
L 2253 4666 
z
" transform="scale(0.015625)"/>
       </defs>
       <use xlink:href="#DejaVuSans-30"/>
       <use xlink:href="#DejaVuSans-2e" x="63.623047"/>
       <use xlink:href="#DejaVuSans-34" x="95.410156"/>
      </g>
     </g>
    </g>
    <g id="xtick_4">
     <g id="line2d_7">
      <path d="M 181.556206 246.565625 
L 181.556206 10.8 
" clip-path="url(#p67b358ada1)" style="fill: none; stroke: #b0b0b0; stroke-width: 0.8; stroke-linecap: square"/>
     </g>
     <g id="line2d_8">
      <g>
       <use xlink:href="#mce73c6259a" x="181.556206" y="246.565625" style="stroke: #000000; stroke-width: 0.8"/>
      </g>
     </g>
     <g id="text_4">
      <!-- 0.6 -->
      <g transform="translate(173.604643 261.164062) scale(0.1 -0.1)">
       <defs>
        <path id="DejaVuSans-36" d="M 2113 2584 
Q 1688 2584 1439 2293 
Q 1191 2003 1191 1497 
Q 1191 994 1439 701 
Q 1688 409 2113 409 
Q 2538 409 2786 701 
Q 3034 994 3034 1497 
Q 3034 2003 2786 2293 
Q 2538 2584 2113 2584 
z
M 3366 4563 
L 3366 3988 
Q 3128 4100 2886 4159 
Q 2644 4219 2406 4219 
Q 1781 4219 1451 3797 
Q 1122 3375 1075 2522 
Q 1259 2794 1537 2939 
Q 1816 3084 2150 3084 
Q 2853 3084 3261 2657 
Q 3669 2231 3669 1497 
Q 3669 778 3244 343 
Q 2819 -91 2113 -91 
Q 1303 -91 875 529 
Q 447 1150 447 2328 
Q 447 3434 972 4092 
Q 1497 4750 2381 4750 
Q 2619 4750 2861 4703 
Q 3103 4656 3366 4563 
z
" transform="scale(0.015625)"/>
       </defs>
       <use xlink:href="#DejaVuSans-30"/>
       <use xlink:href="#DejaVuSans-2e" x="63.623047"/>
       <use xlink:href="#DejaVuSans-36" x="95.410156"/>
      </g>
     </g>
    </g>
    <g id="xtick_5">
     <g id="line2d_9">
      <path d="M 223.19312 246.565625 
L 223.19312 10.8 
" clip-path="url(#p67b358ada1)" style="fill: none; stroke: #b0b0b0; stroke-width: 0.8; stroke-linecap: square"/>
     </g>
     <g id="line2d_10">
      <g>
       <use xlink:href="#mce73c6259a" x="223.19312" y="246.565625" style="stroke: #000000; stroke-width: 0.8"/>
      </g>
     </g>
     <g id="text_5">
      <!-- 0.8 -->
      <g transform="translate(215.241557 261.164062) scale(0.1 -0.1)">
       <defs>
        <path id="DejaVuSans-38" d="M 2034 2216 
Q 1584 2216 1326 1975 
Q 1069 1734 1069 1313 
Q 1069 891 1326 650 
Q 1584 409 2034 409 
Q 2484 409 2743 651 
Q 3003 894 3003 1313 
Q 3003 1734 2745 1975 
Q 2488 2216 2034 2216 
z
M 1403 2484 
Q 997 2584 770 2862 
Q 544 3141 544 3541 
Q 544 4100 942 4425 
Q 1341 4750 2034 4750 
Q 2731 4750 3128 4425 
Q 3525 4100 3525 3541 
Q 3525 3141 3298 2862 
Q 3072 2584 2669 2484 
Q 3125 2378 3379 2068 
Q 3634 1759 3634 1313 
Q 3634 634 3220 271 
Q 2806 -91 2034 -91 
Q 1263 -91 848 271 
Q 434 634 434 1313 
Q 434 1759 690 2068 
Q 947 2378 1403 2484 
z
M 1172 3481 
Q 1172 3119 1398 2916 
Q 1625 2713 2034 2713 
Q 2441 2713 2670 2916 
Q 2900 3119 2900 3481 
Q 2900 3844 2670 4047 
Q 2441 4250 2034 4250 
Q 1625 4250 1398 4047 
Q 1172 3844 1172 3481 
z
" transform="scale(0.015625)"/>
       </defs>
       <use xlink:href="#DejaVuSans-30"/>
       <use xlink:href="#DejaVuSans-2e" x="63.623047"/>
       <use xlink:href="#DejaVuSans-38" x="95.410156"/>
      </g>
     </g>
    </g>
    <g id="xtick_6">
     <g id="line2d_11">
      <path d="M 264.830034 246.565625 
L 264.830034 10.8 
" clip-path="url(#p67b358ada1)" style="fill: none; stroke: #b0b0b0; stroke-width: 0.8; stroke-linecap: square"/>
     </g>
     <g id="line2d_12">
      <g>
       <use xlink:href="#mce73c6259a" x="264.830034" y="246.565625" style="stroke: #000000; stroke-width: 0.8"/>
      </g>
     </g>
     <g id="text_6">
      <!-- 1.0 -->
      <g transform="translate(256.878472 261.164062) scale(0.1 -0.1)">
       <defs>
        <path id="DejaVuSans-31" d="M 794 531 
L 1825 531 
L 1825 4091 
L 703 3866 
L 703 4441 
L 1819 4666 
L 2450 4666 
L 2450 531 
L 3481 531 
L 3481 0 
L 794 0 
L 794 531 
z
" transform="scale(0.015625)"/>
       </defs>
       <use xlink:href="#DejaVuSans-31"/>
       <use xlink:href="#DejaVuSans-2e" x="63.623047"/>
       <use xlink:href="#DejaVuSans-30" x="95.410156"/>
      </g>
     </g>
    </g>
    <g id="xtick_7">
     <g id="line2d_13">
      <path d="M 306.466948 246.565625 
L 306.466948 10.8 
" clip-path="url(#p67b358ada1)" style="fill: none; stroke: #b0b0b0; stroke-width: 0.8; stroke-linecap: square"/>
     </g>
     <g id="line2d_14">
      <g>
       <use xlink:href="#mce73c6259a" x="306.466948" y="246.565625" style="stroke: #000000; stroke-width: 0.8"/>
      </g>
     </g>
     <g id="text_7">
      <!-- 1.2 -->
      <g transform="translate(298.515386 261.164062) scale(0.1 -0.1)">
       <use xlink:href="#DejaVuSans-31"/>
       <use xlink:href="#DejaVuSans-2e" x="63.623047"/>
       <use xlink:href="#DejaVuSans-32" x="95.410156"/>
      </g>
     </g>
    </g>
    <g id="xtick_8">
     <g id="line2d_15">
      <path d="M 348.103862 246.565625 
L 348.103862 10.8 
" clip-path="url(#p67b358ada1)" style="fill: none; stroke: #b0b0b0; stroke-width: 0.8; stroke-linecap: square"/>
     </g>
     <g id="line2d_16">
      <g>
       <use xlink:href="#mce73c6259a" x="348.103862" y="246.565625" style="stroke: #000000; stroke-width: 0.8"/>
      </g>
     </g>
     <g id="text_8">
      <!-- 1.4 -->
      <g transform="translate(340.1523 261.164062) scale(0.1 -0.1)">
       <use xlink:href="#DejaVuSans-31"/>
       <use xlink:href="#DejaVuSans-2e" x="63.623047"/>
       <use xlink:href="#DejaVuSans-34" x="95.410156"/>
      </g>
     </g>
    </g>
    <g id="xtick_9">
     <g id="line2d_17">
      <path d="M 389.740776 246.565625 
L 389.740776 10.8 
" clip-path="url(#p67b358ada1)" style="fill: none; stroke: #b0b0b0; stroke-width: 0.8; stroke-linecap: square"/>
     </g>
     <g id="line2d_18">
      <g>
       <use xlink:href="#mce73c6259a" x="389.740776" y="246.565625" style="stroke: #000000; stroke-width: 0.8"/>
      </g>
     </g>
     <g id="text_9">
      <!-- 1.6 -->
      <g transform="translate(381.789214 261.164062) scale(0.1 -0.1)">
       <use xlink:href="#DejaVuSans-31"/>
       <use xlink:href="#DejaVuSans-2e" x="63.623047"/>
       <use xlink:href="#DejaVuSans-36" x="95.410156"/>
      </g>
     </g>
    </g>
    <g id="xtick_10">
     <g id="line2d_19">
      <path d="M 431.377691 246.565625 
L 431.377691 10.8 
" clip-path="url(#p67b358ada1)" style="fill: none; stroke: #b0b0b0; stroke-width: 0.8; stroke-linecap: square"/>
     </g>
     <g id="line2d_20">
      <g>
       <use xlink:href="#mce73c6259a" x="431.377691" y="246.565625" style="stroke: #000000; stroke-width: 0.8"/>
      </g>
     </g>
     <g id="text_10">
      <!-- 1.8 -->
      <g transform="translate(423.426128 261.164062) scale(0.1 -0.1)">
       <use xlink:href="#DejaVuSans-31"/>
       <use xlink:href="#DejaVuSans-2e" x="63.623047"/>
       <use xlink:href="#DejaVuSans-38" x="95.410156"/>
      </g>
     </g>
    </g>
    <g id="xtick_11">
     <g id="line2d_21">
      <path d="M 473.014605 246.565625 
L 473.014605 10.8 
" clip-path="url(#p67b358ada1)" style="fill: none; stroke: #b0b0b0; stroke-width: 0.8; stroke-linecap: square"/>
     </g>
     <g id="line2d_22">
      <g>
       <use xlink:href="#mce73c6259a" x="473.014605" y="246.565625" style="stroke: #000000; stroke-width: 0.8"/>
      </g>
     </g>
     <g id="text_11">
      <!-- 2.0 -->
      <g transform="translate(465.063042 261.164062) scale(0.1 -0.1)">
       <use xlink:href="#DejaVuSans-32"/>
       <use xlink:href="#DejaVuSans-2e" x="63.623047"/>
       <use xlink:href="#DejaVuSans-30" x="95.410156"/>
      </g>
     </g>
    </g>
    <g id="xtick_12">
     <g id="line2d_23">
      <path d="M 514.651519 246.565625 
L 514.651519 10.8 
" clip-path="url(#p67b358ada1)" style="fill: none; stroke: #b0b0b0; stroke-width: 0.8; stroke-linecap: square"/>
     </g>
     <g id="line2d_24">
      <g>
       <use xlink:href="#mce73c6259a" x="514.651519" y="246.565625" style="stroke: #000000; stroke-width: 0.8"/>
      </g>
     </g>
     <g id="text_12">
      <!-- 2.2 -->
      <g transform="translate(506.699956 261.164062) scale(0.1 -0.1)">
       <use xlink:href="#DejaVuSans-32"/>
       <use xlink:href="#DejaVuSans-2e" x="63.623047"/>
       <use xlink:href="#DejaVuSans-32" x="95.410156"/>
      </g>
     </g>
    </g>
    <g id="xtick_13">
     <g id="line2d_25">
      <path d="M 556.288433 246.565625 
L 556.288433 10.8 
" clip-path="url(#p67b358ada1)" style="fill: none; stroke: #b0b0b0; stroke-width: 0.8; stroke-linecap: square"/>
     </g>
     <g id="line2d_26">
      <g>
       <use xlink:href="#mce73c6259a" x="556.288433" y="246.565625" style="stroke: #000000; stroke-width: 0.8"/>
      </g>
     </g>
     <g id="text_13">
      <!-- 2.4 -->
      <g transform="translate(548.33687 261.164062) scale(0.1 -0.1)">
       <use xlink:href="#DejaVuSans-32"/>
       <use xlink:href="#DejaVuSans-2e" x="63.623047"/>
       <use xlink:href="#DejaVuSans-34" x="95.410156"/>
      </g>
     </g>
    </g>
    <g id="xtick_14">
     <g id="line2d_27">
      <path d="M 597.925347 246.565625 
L 597.925347 10.8 
" clip-path="url(#p67b358ada1)" style="fill: none; stroke: #b0b0b0; stroke-width: 0.8; stroke-linecap: square"/>
     </g>
     <g id="line2d_28">
      <g>
       <use xlink:href="#mce73c6259a" x="597.925347" y="246.565625" style="stroke: #000000; stroke-width: 0.8"/>
      </g>
     </g>
     <g id="text_14">
      <!-- 2.6 -->
      <g transform="translate(589.973785 261.164062) scale(0.1 -0.1)">
       <use xlink:href="#DejaVuSans-32"/>
       <use xlink:href="#DejaVuSans-2e" x="63.623047"/>
       <use xlink:href="#DejaVuSans-36" x="95.410156"/>
      </g>
     </g>
    </g>
    <g id="xtick_15">
     <g id="line2d_29">
      <path d="M 639.562261 246.565625 
L 639.562261 10.8 
" clip-path="url(#p67b358ada1)" style="fill: none; stroke: #b0b0b0; stroke-width: 0.8; stroke-linecap: square"/>
     </g>
     <g id="line2d_30">
      <g>
       <use xlink:href="#mce73c6259a" x="639.562261" y="246.565625" style="stroke: #000000; stroke-width: 0.8"/>
      </g>
     </g>
     <g id="text_15">
      <!-- 2.8 -->
      <g transform="translate(631.610699 261.164062) scale(0.1 -0.1)">
       <use xlink:href="#DejaVuSans-32"/>
       <use xlink:href="#DejaVuSans-2e" x="63.623047"/>
       <use xlink:href="#DejaVuSans-38" x="95.410156"/>
      </g>
     </g>
    </g>
    <g id="xtick_16">
     <g id="line2d_31">
      <path d="M 681.199175 246.565625 
L 681.199175 10.8 
" clip-path="url(#p67b358ada1)" style="fill: none; stroke: #b0b0b0; stroke-width: 0.8; stroke-linecap: square"/>
     </g>
     <g id="line2d_32">
      <g>
       <use xlink:href="#mce73c6259a" x="681.199175" y="246.565625" style="stroke: #000000; stroke-width: 0.8"/>
      </g>
     </g>
     <g id="text_16">
      <!-- 3.0 -->
      <g transform="translate(673.247613 261.164062) scale(0.1 -0.1)">
       <defs>
        <path id="DejaVuSans-33" d="M 2597 2516 
Q 3050 2419 3304 2112 
Q 3559 1806 3559 1356 
Q 3559 666 3084 287 
Q 2609 -91 1734 -91 
Q 1441 -91 1130 -33 
Q 819 25 488 141 
L 488 750 
Q 750 597 1062 519 
Q 1375 441 1716 441 
Q 2309 441 2620 675 
Q 2931 909 2931 1356 
Q 2931 1769 2642 2001 
Q 2353 2234 1838 2234 
L 1294 2234 
L 1294 2753 
L 1863 2753 
Q 2328 2753 2575 2939 
Q 2822 3125 2822 3475 
Q 2822 3834 2567 4026 
Q 2313 4219 1838 4219 
Q 1578 4219 1281 4162 
Q 984 4106 628 3988 
L 628 4550 
Q 988 4650 1302 4700 
Q 1616 4750 1894 4750 
Q 2613 4750 3031 4423 
Q 3450 4097 3450 3541 
Q 3450 3153 3228 2886 
Q 3006 2619 2597 2516 
z
" transform="scale(0.015625)"/>
       </defs>
       <use xlink:href="#DejaVuSans-33"/>
       <use xlink:href="#DejaVuSans-2e" x="63.623047"/>
       <use xlink:href="#DejaVuSans-30" x="95.410156"/>
      </g>
     </g>
    </g>
    <g id="text_17">
     <!-- V_In [V] -->
     <g transform="translate(358.815625 274.842188) scale(0.1 -0.1)">
      <defs>
       <path id="DejaVuSans-56" d="M 1831 0 
L 50 4666 
L 709 4666 
L 2188 738 
L 3669 4666 
L 4325 4666 
L 2547 0 
L 1831 0 
z
" transform="scale(0.015625)"/>
       <path id="DejaVuSans-5f" d="M 3263 -1063 
L 3263 -1509 
L -63 -1509 
L -63 -1063 
L 3263 -1063 
z
" transform="scale(0.015625)"/>
       <path id="DejaVuSans-49" d="M 628 4666 
L 1259 4666 
L 1259 0 
L 628 0 
L 628 4666 
z
" transform="scale(0.015625)"/>
       <path id="DejaVuSans-6e" d="M 3513 2113 
L 3513 0 
L 2938 0 
L 2938 2094 
Q 2938 2591 2744 2837 
Q 2550 3084 2163 3084 
Q 1697 3084 1428 2787 
Q 1159 2491 1159 1978 
L 1159 0 
L 581 0 
L 581 3500 
L 1159 3500 
L 1159 2956 
Q 1366 3272 1645 3428 
Q 1925 3584 2291 3584 
Q 2894 3584 3203 3211 
Q 3513 2838 3513 2113 
z
" transform="scale(0.015625)"/>
       <path id="DejaVuSans-20" transform="scale(0.015625)"/>
       <path id="DejaVuSans-5b" d="M 550 4863 
L 1875 4863 
L 1875 4416 
L 1125 4416 
L 1125 -397 
L 1875 -397 
L 1875 -844 
L 550 -844 
L 550 4863 
z
" transform="scale(0.015625)"/>
       <path id="DejaVuSans-5d" d="M 1947 4863 
L 1947 -844 
L 622 -844 
L 622 -397 
L 1369 -397 
L 1369 4416 
L 622 4416 
L 622 4863 
L 1947 4863 
z
" transform="scale(0.015625)"/>
      </defs>
      <use xlink:href="#DejaVuSans-56"/>
      <use xlink:href="#DejaVuSans-5f" x="68.408203"/>
      <use xlink:href="#DejaVuSans-49" x="118.408203"/>
      <use xlink:href="#DejaVuSans-6e" x="147.900391"/>
      <use xlink:href="#DejaVuSans-20" x="211.279297"/>
      <use xlink:href="#DejaVuSans-5b" x="243.066406"/>
      <use xlink:href="#DejaVuSans-56" x="282.080078"/>
      <use xlink:href="#DejaVuSans-5d" x="350.488281"/>
     </g>
    </g>
   </g>
   <g id="matplotlib.axis_2">
    <g id="ytick_1">
     <g id="line2d_33">
      <path d="M 47.38125 238.026039 
L 709.2 238.026039 
" clip-path="url(#p67b358ada1)" style="fill: none; stroke: #b0b0b0; stroke-width: 0.8; stroke-linecap: square"/>
     </g>
     <g id="line2d_34">
      <defs>
       <path id="m0db5d0333c" d="M 0 0 
L -3.5 0 
" style="stroke: #000000; stroke-width: 0.8"/>
      </defs>
      <g>
       <use xlink:href="#m0db5d0333c" x="47.38125" y="238.026039" style="stroke: #000000; stroke-width: 0.8"/>
      </g>
     </g>
     <g id="text_18">
      <!-- 0.0 -->
      <g transform="translate(24.478125 241.825258) scale(0.1 -0.1)">
       <use xlink:href="#DejaVuSans-30"/>
       <use xlink:href="#DejaVuSans-2e" x="63.623047"/>
       <use xlink:href="#DejaVuSans-30" x="95.410156"/>
      </g>
     </g>
    </g>
    <g id="ytick_2">
     <g id="line2d_35">
      <path d="M 47.38125 216.255705 
L 709.2 216.255705 
" clip-path="url(#p67b358ada1)" style="fill: none; stroke: #b0b0b0; stroke-width: 0.8; stroke-linecap: square"/>
     </g>
     <g id="line2d_36">
      <g>
       <use xlink:href="#m0db5d0333c" x="47.38125" y="216.255705" style="stroke: #000000; stroke-width: 0.8"/>
      </g>
     </g>
     <g id="text_19">
      <!-- 0.1 -->
      <g transform="translate(24.478125 220.054924) scale(0.1 -0.1)">
       <use xlink:href="#DejaVuSans-30"/>
       <use xlink:href="#DejaVuSans-2e" x="63.623047"/>
       <use xlink:href="#DejaVuSans-31" x="95.410156"/>
      </g>
     </g>
    </g>
    <g id="ytick_3">
     <g id="line2d_37">
      <path d="M 47.38125 194.485372 
L 709.2 194.485372 
" clip-path="url(#p67b358ada1)" style="fill: none; stroke: #b0b0b0; stroke-width: 0.8; stroke-linecap: square"/>
     </g>
     <g id="line2d_38">
      <g>
       <use xlink:href="#m0db5d0333c" x="47.38125" y="194.485372" style="stroke: #000000; stroke-width: 0.8"/>
      </g>
     </g>
     <g id="text_20">
      <!-- 0.2 -->
      <g transform="translate(24.478125 198.284591) scale(0.1 -0.1)">
       <use xlink:href="#DejaVuSans-30"/>
       <use xlink:href="#DejaVuSans-2e" x="63.623047"/>
       <use xlink:href="#DejaVuSans-32" x="95.410156"/>
      </g>
     </g>
    </g>
    <g id="ytick_4">
     <g id="line2d_39">
      <path d="M 47.38125 172.715038 
L 709.2 172.715038 
" clip-path="url(#p67b358ada1)" style="fill: none; stroke: #b0b0b0; stroke-width: 0.8; stroke-linecap: square"/>
     </g>
     <g id="line2d_40">
      <g>
       <use xlink:href="#m0db5d0333c" x="47.38125" y="172.715038" style="stroke: #000000; stroke-width: 0.8"/>
      </g>
     </g>
     <g id="text_21">
      <!-- 0.3 -->
      <g transform="translate(24.478125 176.514257) scale(0.1 -0.1)">
       <use xlink:href="#DejaVuSans-30"/>
       <use xlink:href="#DejaVuSans-2e" x="63.623047"/>
       <use xlink:href="#DejaVuSans-33" x="95.410156"/>
      </g>
     </g>
    </g>
    <g id="ytick_5">
     <g id="line2d_41">
      <path d="M 47.38125 150.944705 
L 709.2 150.944705 
" clip-path="url(#p67b358ada1)" style="fill: none; stroke: #b0b0b0; stroke-width: 0.8; stroke-linecap: square"/>
     </g>
     <g id="line2d_42">
      <g>
       <use xlink:href="#m0db5d0333c" x="47.38125" y="150.944705" style="stroke: #000000; stroke-width: 0.8"/>
      </g>
     </g>
     <g id="text_22">
      <!-- 0.4 -->
      <g transform="translate(24.478125 154.743923) scale(0.1 -0.1)">
       <use xlink:href="#DejaVuSans-30"/>
       <use xlink:href="#DejaVuSans-2e" x="63.623047"/>
       <use xlink:href="#DejaVuSans-34" x="95.410156"/>
      </g>
     </g>
    </g>
    <g id="ytick_6">
     <g id="line2d_43">
      <path d="M 47.38125 129.174371 
L 709.2 129.174371 
" clip-path="url(#p67b358ada1)" style="fill: none; stroke: #b0b0b0; stroke-width: 0.8; stroke-linecap: square"/>
     </g>
     <g id="line2d_44">
      <g>
       <use xlink:href="#m0db5d0333c" x="47.38125" y="129.174371" style="stroke: #000000; stroke-width: 0.8"/>
      </g>
     </g>
     <g id="text_23">
      <!-- 0.5 -->
      <g transform="translate(24.478125 132.97359) scale(0.1 -0.1)">
       <defs>
        <path id="DejaVuSans-35" d="M 691 4666 
L 3169 4666 
L 3169 4134 
L 1269 4134 
L 1269 2991 
Q 1406 3038 1543 3061 
Q 1681 3084 1819 3084 
Q 2600 3084 3056 2656 
Q 3513 2228 3513 1497 
Q 3513 744 3044 326 
Q 2575 -91 1722 -91 
Q 1428 -91 1123 -41 
Q 819 9 494 109 
L 494 744 
Q 775 591 1075 516 
Q 1375 441 1709 441 
Q 2250 441 2565 725 
Q 2881 1009 2881 1497 
Q 2881 1984 2565 2268 
Q 2250 2553 1709 2553 
Q 1456 2553 1204 2497 
Q 953 2441 691 2322 
L 691 4666 
z
" transform="scale(0.015625)"/>
       </defs>
       <use xlink:href="#DejaVuSans-30"/>
       <use xlink:href="#DejaVuSans-2e" x="63.623047"/>
       <use xlink:href="#DejaVuSans-35" x="95.410156"/>
      </g>
     </g>
    </g>
    <g id="ytick_7">
     <g id="line2d_45">
      <path d="M 47.38125 107.404038 
L 709.2 107.404038 
" clip-path="url(#p67b358ada1)" style="fill: none; stroke: #b0b0b0; stroke-width: 0.8; stroke-linecap: square"/>
     </g>
     <g id="line2d_46">
      <g>
       <use xlink:href="#m0db5d0333c" x="47.38125" y="107.404038" style="stroke: #000000; stroke-width: 0.8"/>
      </g>
     </g>
     <g id="text_24">
      <!-- 0.6 -->
      <g transform="translate(24.478125 111.203256) scale(0.1 -0.1)">
       <use xlink:href="#DejaVuSans-30"/>
       <use xlink:href="#DejaVuSans-2e" x="63.623047"/>
       <use xlink:href="#DejaVuSans-36" x="95.410156"/>
      </g>
     </g>
    </g>
    <g id="ytick_8">
     <g id="line2d_47">
      <path d="M 47.38125 85.633704 
L 709.2 85.633704 
" clip-path="url(#p67b358ada1)" style="fill: none; stroke: #b0b0b0; stroke-width: 0.8; stroke-linecap: square"/>
     </g>
     <g id="line2d_48">
      <g>
       <use xlink:href="#m0db5d0333c" x="47.38125" y="85.633704" style="stroke: #000000; stroke-width: 0.8"/>
      </g>
     </g>
     <g id="text_25">
      <!-- 0.7 -->
      <g transform="translate(24.478125 89.432923) scale(0.1 -0.1)">
       <defs>
        <path id="DejaVuSans-37" d="M 525 4666 
L 3525 4666 
L 3525 4397 
L 1831 0 
L 1172 0 
L 2766 4134 
L 525 4134 
L 525 4666 
z
" transform="scale(0.015625)"/>
       </defs>
       <use xlink:href="#DejaVuSans-30"/>
       <use xlink:href="#DejaVuSans-2e" x="63.623047"/>
       <use xlink:href="#DejaVuSans-37" x="95.410156"/>
      </g>
     </g>
    </g>
    <g id="ytick_9">
     <g id="line2d_49">
      <path d="M 47.38125 63.86337 
L 709.2 63.86337 
" clip-path="url(#p67b358ada1)" style="fill: none; stroke: #b0b0b0; stroke-width: 0.8; stroke-linecap: square"/>
     </g>
     <g id="line2d_50">
      <g>
       <use xlink:href="#m0db5d0333c" x="47.38125" y="63.86337" style="stroke: #000000; stroke-width: 0.8"/>
      </g>
     </g>
     <g id="text_26">
      <!-- 0.8 -->
      <g transform="translate(24.478125 67.662589) scale(0.1 -0.1)">
       <use xlink:href="#DejaVuSans-30"/>
       <use xlink:href="#DejaVuSans-2e" x="63.623047"/>
       <use xlink:href="#DejaVuSans-38" x="95.410156"/>
      </g>
     </g>
    </g>
    <g id="ytick_10">
     <g id="line2d_51">
      <path d="M 47.38125 42.093037 
L 709.2 42.093037 
" clip-path="url(#p67b358ada1)" style="fill: none; stroke: #b0b0b0; stroke-width: 0.8; stroke-linecap: square"/>
     </g>
     <g id="line2d_52">
      <g>
       <use xlink:href="#m0db5d0333c" x="47.38125" y="42.093037" style="stroke: #000000; stroke-width: 0.8"/>
      </g>
     </g>
     <g id="text_27">
      <!-- 0.9 -->
      <g transform="translate(24.478125 45.892256) scale(0.1 -0.1)">
       <defs>
        <path id="DejaVuSans-39" d="M 703 97 
L 703 672 
Q 941 559 1184 500 
Q 1428 441 1663 441 
Q 2288 441 2617 861 
Q 2947 1281 2994 2138 
Q 2813 1869 2534 1725 
Q 2256 1581 1919 1581 
Q 1219 1581 811 2004 
Q 403 2428 403 3163 
Q 403 3881 828 4315 
Q 1253 4750 1959 4750 
Q 2769 4750 3195 4129 
Q 3622 3509 3622 2328 
Q 3622 1225 3098 567 
Q 2575 -91 1691 -91 
Q 1453 -91 1209 -44 
Q 966 3 703 97 
z
M 1959 2075 
Q 2384 2075 2632 2365 
Q 2881 2656 2881 3163 
Q 2881 3666 2632 3958 
Q 2384 4250 1959 4250 
Q 1534 4250 1286 3958 
Q 1038 3666 1038 3163 
Q 1038 2656 1286 2365 
Q 1534 2075 1959 2075 
z
" transform="scale(0.015625)"/>
       </defs>
       <use xlink:href="#DejaVuSans-30"/>
       <use xlink:href="#DejaVuSans-2e" x="63.623047"/>
       <use xlink:href="#DejaVuSans-39" x="95.410156"/>
      </g>
     </g>
    </g>
    <g id="ytick_11">
     <g id="line2d_53">
      <path d="M 47.38125 20.322703 
L 709.2 20.322703 
" clip-path="url(#p67b358ada1)" style="fill: none; stroke: #b0b0b0; stroke-width: 0.8; stroke-linecap: square"/>
     </g>
     <g id="line2d_54">
      <g>
       <use xlink:href="#m0db5d0333c" x="47.38125" y="20.322703" style="stroke: #000000; stroke-width: 0.8"/>
      </g>
     </g>
     <g id="text_28">
      <!-- 1.0 -->
      <g transform="translate(24.478125 24.121922) scale(0.1 -0.1)">
       <use xlink:href="#DejaVuSans-31"/>
       <use xlink:href="#DejaVuSans-2e" x="63.623047"/>
       <use xlink:href="#DejaVuSans-30" x="95.410156"/>
      </g>
     </g>
    </g>
    <g id="text_29">
     <!-- efficiency [n] -->
     <g transform="translate(18.398437 161.420313) rotate(-90) scale(0.1 -0.1)">
      <defs>
       <path id="DejaVuSans-65" d="M 3597 1894 
L 3597 1613 
L 953 1613 
Q 991 1019 1311 708 
Q 1631 397 2203 397 
Q 2534 397 2845 478 
Q 3156 559 3463 722 
L 3463 178 
Q 3153 47 2828 -22 
Q 2503 -91 2169 -91 
Q 1331 -91 842 396 
Q 353 884 353 1716 
Q 353 2575 817 3079 
Q 1281 3584 2069 3584 
Q 2775 3584 3186 3129 
Q 3597 2675 3597 1894 
z
M 3022 2063 
Q 3016 2534 2758 2815 
Q 2500 3097 2075 3097 
Q 1594 3097 1305 2825 
Q 1016 2553 972 2059 
L 3022 2063 
z
" transform="scale(0.015625)"/>
       <path id="DejaVuSans-66" d="M 2375 4863 
L 2375 4384 
L 1825 4384 
Q 1516 4384 1395 4259 
Q 1275 4134 1275 3809 
L 1275 3500 
L 2222 3500 
L 2222 3053 
L 1275 3053 
L 1275 0 
L 697 0 
L 697 3053 
L 147 3053 
L 147 3500 
L 697 3500 
L 697 3744 
Q 697 4328 969 4595 
Q 1241 4863 1831 4863 
L 2375 4863 
z
" transform="scale(0.015625)"/>
       <path id="DejaVuSans-69" d="M 603 3500 
L 1178 3500 
L 1178 0 
L 603 0 
L 603 3500 
z
M 603 4863 
L 1178 4863 
L 1178 4134 
L 603 4134 
L 603 4863 
z
" transform="scale(0.015625)"/>
       <path id="DejaVuSans-63" d="M 3122 3366 
L 3122 2828 
Q 2878 2963 2633 3030 
Q 2388 3097 2138 3097 
Q 1578 3097 1268 2742 
Q 959 2388 959 1747 
Q 959 1106 1268 751 
Q 1578 397 2138 397 
Q 2388 397 2633 464 
Q 2878 531 3122 666 
L 3122 134 
Q 2881 22 2623 -34 
Q 2366 -91 2075 -91 
Q 1284 -91 818 406 
Q 353 903 353 1747 
Q 353 2603 823 3093 
Q 1294 3584 2113 3584 
Q 2378 3584 2631 3529 
Q 2884 3475 3122 3366 
z
" transform="scale(0.015625)"/>
       <path id="DejaVuSans-79" d="M 2059 -325 
Q 1816 -950 1584 -1140 
Q 1353 -1331 966 -1331 
L 506 -1331 
L 506 -850 
L 844 -850 
Q 1081 -850 1212 -737 
Q 1344 -625 1503 -206 
L 1606 56 
L 191 3500 
L 800 3500 
L 1894 763 
L 2988 3500 
L 3597 3500 
L 2059 -325 
z
" transform="scale(0.015625)"/>
      </defs>
      <use xlink:href="#DejaVuSans-65"/>
      <use xlink:href="#DejaVuSans-66" x="61.523438"/>
      <use xlink:href="#DejaVuSans-66" x="96.728516"/>
      <use xlink:href="#DejaVuSans-69" x="131.933594"/>
      <use xlink:href="#DejaVuSans-63" x="159.716797"/>
      <use xlink:href="#DejaVuSans-69" x="214.697266"/>
      <use xlink:href="#DejaVuSans-65" x="242.480469"/>
      <use xlink:href="#DejaVuSans-6e" x="304.003906"/>
      <use xlink:href="#DejaVuSans-63" x="367.382812"/>
      <use xlink:href="#DejaVuSans-79" x="422.363281"/>
      <use xlink:href="#DejaVuSans-20" x="481.542969"/>
      <use xlink:href="#DejaVuSans-5b" x="513.330078"/>
      <use xlink:href="#DejaVuSans-6e" x="552.34375"/>
      <use xlink:href="#DejaVuSans-5d" x="615.722656"/>
     </g>
    </g>
   </g>
   <g id="line2d_55">
    <path d="M 77.46392 232.933069 
L 79.545766 213.614682 
L 81.627612 197.516029 
L 83.709458 183.894093 
L 85.791303 172.218149 
L 87.873149 162.099 
L 89.954995 153.244746 
L 92.03684 145.432171 
L 94.118686 138.48766 
L 96.200532 132.274153 
L 98.282378 126.681997 
L 100.364223 121.622428 
L 102.446069 117.022822 
L 104.527915 112.823182 
L 106.60976 108.973514 
L 108.691606 105.43182 
L 110.773452 102.162565 
L 112.855297 99.135478 
L 114.937143 96.324612 
L 119.100835 91.265056 
L 123.264526 86.837948 
L 127.428217 82.931679 
L 131.591909 79.459442 
L 135.7556 76.352707 
L 139.919292 73.556648 
L 144.082983 71.026883 
L 148.246674 68.727098 
L 152.410366 66.627297 
L 158.655903 63.798998 
L 164.90144 61.297045 
L 171.146977 59.068036 
L 177.392514 57.069618 
L 183.638051 55.26777 
L 191.965434 53.124038 
L 200.292817 51.228861 
L 208.6202 49.541379 
L 219.029428 47.675421 
L 229.438657 46.034285 
L 241.929731 44.308336 
L 254.420805 42.80041 
L 268.993725 41.265393 
L 285.648491 39.750324 
L 304.385102 38.289381 
L 325.203559 36.905216 
L 348.103862 35.611042 
L 375.167856 34.321508 
L 404.313696 33.157332 
L 437.623228 32.04499 
L 470.932759 31.11155 
L 470.932759 31.11155 
" clip-path="url(#p67b358ada1)" style="fill: none; stroke: #1f77b4; stroke-width: 1.5; stroke-linecap: square"/>
   </g>
   <g id="line2d_56">
    <path d="M 77.46392 235.849006 
L 85.791303 235.849006 
L 87.873149 232.925383 
L 89.954995 219.644488 
L 92.03684 207.926051 
L 94.118686 197.509664 
L 96.200532 188.189739 
L 98.282378 179.801807 
L 100.364223 172.212726 
L 102.446069 165.313563 
L 104.527915 159.014327 
L 106.60976 153.240027 
L 108.691606 147.927673 
L 110.773452 143.023961 
L 112.855297 138.483487 
L 114.937143 134.267334 
L 117.018989 130.34195 
L 119.100835 126.678259 
L 121.18268 123.250935 
L 125.346372 117.019438 
L 129.510063 111.500114 
L 133.673755 106.577475 
L 137.837446 102.159722 
L 142.001137 98.172972 
L 146.164829 94.557082 
L 150.32852 91.262606 
L 154.492212 88.248512 
L 158.655903 85.480468 
L 162.819594 82.929525 
L 166.983286 80.571108 
L 173.228823 77.349343 
L 179.47436 74.455216 
L 185.719897 71.841168 
L 191.965434 69.468418 
L 198.210971 67.30503 
L 206.538354 64.700954 
L 214.865737 62.370994 
L 223.19312 60.274032 
L 231.520503 58.376783 
L 241.929731 56.245045 
L 252.33896 54.34009 
L 264.830034 52.305602 
L 277.321108 50.501438 
L 291.894028 48.638736 
L 306.466948 46.993353 
L 323.121714 45.333285 
L 341.858325 43.697458 
L 362.676782 42.114805 
L 385.577085 40.605283 
L 410.559233 39.181336 
L 439.705073 37.754821 
L 470.932759 36.449157 
L 506.324136 35.188641 
L 547.96105 33.938197 
L 593.761656 32.786645 
L 647.889644 31.655759 
L 679.11733 31.092801 
L 679.11733 31.092801 
" clip-path="url(#p67b358ada1)" style="fill: none; stroke: #ff7f0e; stroke-width: 1.5; stroke-linecap: square"/>
   </g>
   <g id="line2d_57">
    <path d="M 77.46392 41.904318 
L 79.545766 39.951772 
L 81.627612 38.324672 
L 83.709458 36.947914 
L 85.791303 35.767854 
L 87.873149 34.745151 
L 92.03684 33.060745 
L 96.200532 31.731002 
L 100.364223 30.654592 
L 104.527915 29.765427 
L 110.773452 28.688242 
L 117.018989 27.834 
L 125.346372 26.936721 
L 135.7556 26.080911 
L 148.246674 25.310871 
L 162.819594 24.641712 
L 181.556206 24.011091 
L 206.538354 23.415943 
L 237.76604 22.903465 
L 281.4848 22.426029 
L 341.858325 22.008661 
L 429.295845 21.64604 
L 470.932759 21.52794 
L 470.932759 21.52794 
" clip-path="url(#p67b358ada1)" style="fill: none; stroke: #2ca02c; stroke-width: 1.5; stroke-linecap: square"/>
   </g>
   <g id="line2d_58">
    <path d="M 77.46392 52.530164 
L 79.545766 49.611739 
L 81.627612 47.179726 
L 83.709458 45.121878 
L 85.791303 43.358017 
L 87.873149 41.829344 
L 89.954995 40.491762 
L 92.03684 39.31155 
L 96.200532 37.323841 
L 100.364223 35.714764 
L 104.527915 34.385546 
L 108.691606 33.269021 
L 114.937143 31.893332 
L 121.18268 30.783938 
L 129.510063 29.600629 
L 137.837446 28.660095 
L 148.246674 27.724963 
L 160.737749 26.849752 
L 175.310669 26.061639 
L 194.04728 25.294118 
L 216.947583 24.599852 
L 246.093423 23.959206 
L 283.566645 23.377628 
L 331.449097 22.865718 
L 398.068159 22.392946 
L 489.66937 21.981301 
L 622.907495 21.621698 
L 679.11733 21.516619 
L 679.11733 21.516619 
" clip-path="url(#p67b358ada1)" style="fill: none; stroke: #d62728; stroke-width: 1.5; stroke-linecap: square"/>
   </g>
   <g id="patch_3">
    <path d="M 47.38125 246.565625 
L 47.38125 10.8 
" style="fill: none; stroke: #000000; stroke-width: 0.8; stroke-linejoin: miter; stroke-linecap: square"/>
   </g>
   <g id="patch_4">
    <path d="M 709.2 246.565625 
L 709.2 10.8 
" style="fill: none; stroke: #000000; stroke-width: 0.8; stroke-linejoin: miter; stroke-linecap: square"/>
   </g>
   <g id="patch_5">
    <path d="M 47.38125 246.565625 
L 709.2 246.565625 
" style="fill: none; stroke: #000000; stroke-width: 0.8; stroke-linejoin: miter; stroke-linecap: square"/>
   </g>
   <g id="patch_6">
    <path d="M 47.38125 10.8 
L 709.2 10.8 
" style="fill: none; stroke: #000000; stroke-width: 0.8; stroke-linejoin: miter; stroke-linecap: square"/>
   </g>
   <g id="legend_1">
    <g id="patch_7">
     <path d="M 531.953125 241.565625 
L 702.2 241.565625 
Q 704.2 241.565625 704.2 239.565625 
L 704.2 180.740625 
Q 704.2 178.740625 702.2 178.740625 
L 531.953125 178.740625 
Q 529.953125 178.740625 529.953125 180.740625 
L 529.953125 239.565625 
Q 529.953125 241.565625 531.953125 241.565625 
z
" style="fill: #ffffff; opacity: 0.8; stroke: #cccccc; stroke-linejoin: miter"/>
    </g>
    <g id="line2d_59">
     <path d="M 533.953125 186.839063 
L 543.953125 186.839063 
L 553.953125 186.839063 
" style="fill: none; stroke: #1f77b4; stroke-width: 1.5; stroke-linecap: square"/>
    </g>
    <g id="text_30">
     <!-- VStor=2.0V, i_inp=10.0uA -->
     <g transform="translate(561.953125 190.339063) scale(0.1 -0.1)">
      <defs>
       <path id="DejaVuSans-53" d="M 3425 4513 
L 3425 3897 
Q 3066 4069 2747 4153 
Q 2428 4238 2131 4238 
Q 1616 4238 1336 4038 
Q 1056 3838 1056 3469 
Q 1056 3159 1242 3001 
Q 1428 2844 1947 2747 
L 2328 2669 
Q 3034 2534 3370 2195 
Q 3706 1856 3706 1288 
Q 3706 609 3251 259 
Q 2797 -91 1919 -91 
Q 1588 -91 1214 -16 
Q 841 59 441 206 
L 441 856 
Q 825 641 1194 531 
Q 1563 422 1919 422 
Q 2459 422 2753 634 
Q 3047 847 3047 1241 
Q 3047 1584 2836 1778 
Q 2625 1972 2144 2069 
L 1759 2144 
Q 1053 2284 737 2584 
Q 422 2884 422 3419 
Q 422 4038 858 4394 
Q 1294 4750 2059 4750 
Q 2388 4750 2728 4690 
Q 3069 4631 3425 4513 
z
" transform="scale(0.015625)"/>
       <path id="DejaVuSans-74" d="M 1172 4494 
L 1172 3500 
L 2356 3500 
L 2356 3053 
L 1172 3053 
L 1172 1153 
Q 1172 725 1289 603 
Q 1406 481 1766 481 
L 2356 481 
L 2356 0 
L 1766 0 
Q 1100 0 847 248 
Q 594 497 594 1153 
L 594 3053 
L 172 3053 
L 172 3500 
L 594 3500 
L 594 4494 
L 1172 4494 
z
" transform="scale(0.015625)"/>
       <path id="DejaVuSans-6f" d="M 1959 3097 
Q 1497 3097 1228 2736 
Q 959 2375 959 1747 
Q 959 1119 1226 758 
Q 1494 397 1959 397 
Q 2419 397 2687 759 
Q 2956 1122 2956 1747 
Q 2956 2369 2687 2733 
Q 2419 3097 1959 3097 
z
M 1959 3584 
Q 2709 3584 3137 3096 
Q 3566 2609 3566 1747 
Q 3566 888 3137 398 
Q 2709 -91 1959 -91 
Q 1206 -91 779 398 
Q 353 888 353 1747 
Q 353 2609 779 3096 
Q 1206 3584 1959 3584 
z
" transform="scale(0.015625)"/>
       <path id="DejaVuSans-72" d="M 2631 2963 
Q 2534 3019 2420 3045 
Q 2306 3072 2169 3072 
Q 1681 3072 1420 2755 
Q 1159 2438 1159 1844 
L 1159 0 
L 581 0 
L 581 3500 
L 1159 3500 
L 1159 2956 
Q 1341 3275 1631 3429 
Q 1922 3584 2338 3584 
Q 2397 3584 2469 3576 
Q 2541 3569 2628 3553 
L 2631 2963 
z
" transform="scale(0.015625)"/>
       <path id="DejaVuSans-3d" d="M 678 2906 
L 4684 2906 
L 4684 2381 
L 678 2381 
L 678 2906 
z
M 678 1631 
L 4684 1631 
L 4684 1100 
L 678 1100 
L 678 1631 
z
" transform="scale(0.015625)"/>
       <path id="DejaVuSans-2c" d="M 750 794 
L 1409 794 
L 1409 256 
L 897 -744 
L 494 -744 
L 750 256 
L 750 794 
z
" transform="scale(0.015625)"/>
       <path id="DejaVuSans-70" d="M 1159 525 
L 1159 -1331 
L 581 -1331 
L 581 3500 
L 1159 3500 
L 1159 2969 
Q 1341 3281 1617 3432 
Q 1894 3584 2278 3584 
Q 2916 3584 3314 3078 
Q 3713 2572 3713 1747 
Q 3713 922 3314 415 
Q 2916 -91 2278 -91 
Q 1894 -91 1617 61 
Q 1341 213 1159 525 
z
M 3116 1747 
Q 3116 2381 2855 2742 
Q 2594 3103 2138 3103 
Q 1681 3103 1420 2742 
Q 1159 2381 1159 1747 
Q 1159 1113 1420 752 
Q 1681 391 2138 391 
Q 2594 391 2855 752 
Q 3116 1113 3116 1747 
z
" transform="scale(0.015625)"/>
       <path id="DejaVuSans-75" d="M 544 1381 
L 544 3500 
L 1119 3500 
L 1119 1403 
Q 1119 906 1312 657 
Q 1506 409 1894 409 
Q 2359 409 2629 706 
Q 2900 1003 2900 1516 
L 2900 3500 
L 3475 3500 
L 3475 0 
L 2900 0 
L 2900 538 
Q 2691 219 2414 64 
Q 2138 -91 1772 -91 
Q 1169 -91 856 284 
Q 544 659 544 1381 
z
M 1991 3584 
L 1991 3584 
z
" transform="scale(0.015625)"/>
       <path id="DejaVuSans-41" d="M 2188 4044 
L 1331 1722 
L 3047 1722 
L 2188 4044 
z
M 1831 4666 
L 2547 4666 
L 4325 0 
L 3669 0 
L 3244 1197 
L 1141 1197 
L 716 0 
L 50 0 
L 1831 4666 
z
" transform="scale(0.015625)"/>
      </defs>
      <use xlink:href="#DejaVuSans-56"/>
      <use xlink:href="#DejaVuSans-53" x="68.408203"/>
      <use xlink:href="#DejaVuSans-74" x="131.884766"/>
      <use xlink:href="#DejaVuSans-6f" x="171.09375"/>
      <use xlink:href="#DejaVuSans-72" x="232.275391"/>
      <use xlink:href="#DejaVuSans-3d" x="273.388672"/>
      <use xlink:href="#DejaVuSans-32" x="357.177734"/>
      <use xlink:href="#DejaVuSans-2e" x="420.800781"/>
      <use xlink:href="#DejaVuSans-30" x="452.587891"/>
      <use xlink:href="#DejaVuSans-56" x="516.210938"/>
      <use xlink:href="#DejaVuSans-2c" x="584.619141"/>
      <use xlink:href="#DejaVuSans-20" x="616.40625"/>
      <use xlink:href="#DejaVuSans-69" x="648.193359"/>
      <use xlink:href="#DejaVuSans-5f" x="675.976562"/>
      <use xlink:href="#DejaVuSans-69" x="725.976562"/>
      <use xlink:href="#DejaVuSans-6e" x="753.759766"/>
      <use xlink:href="#DejaVuSans-70" x="817.138672"/>
      <use xlink:href="#DejaVuSans-3d" x="880.615234"/>
      <use xlink:href="#DejaVuSans-31" x="964.404297"/>
      <use xlink:href="#DejaVuSans-30" x="1028.027344"/>
      <use xlink:href="#DejaVuSans-2e" x="1091.650391"/>
      <use xlink:href="#DejaVuSans-30" x="1123.4375"/>
      <use xlink:href="#DejaVuSans-75" x="1187.060547"/>
      <use xlink:href="#DejaVuSans-41" x="1250.439453"/>
     </g>
    </g>
    <g id="line2d_60">
     <path d="M 533.953125 201.795313 
L 543.953125 201.795313 
L 553.953125 201.795313 
" style="fill: none; stroke: #ff7f0e; stroke-width: 1.5; stroke-linecap: square"/>
    </g>
    <g id="text_31">
     <!-- VStor=3.0V, i_inp=10.0uA -->
     <g transform="translate(561.953125 205.295313) scale(0.1 -0.1)">
      <use xlink:href="#DejaVuSans-56"/>
      <use xlink:href="#DejaVuSans-53" x="68.408203"/>
      <use xlink:href="#DejaVuSans-74" x="131.884766"/>
      <use xlink:href="#DejaVuSans-6f" x="171.09375"/>
      <use xlink:href="#DejaVuSans-72" x="232.275391"/>
      <use xlink:href="#DejaVuSans-3d" x="273.388672"/>
      <use xlink:href="#DejaVuSans-33" x="357.177734"/>
      <use xlink:href="#DejaVuSans-2e" x="420.800781"/>
      <use xlink:href="#DejaVuSans-30" x="452.587891"/>
      <use xlink:href="#DejaVuSans-56" x="516.210938"/>
      <use xlink:href="#DejaVuSans-2c" x="584.619141"/>
      <use xlink:href="#DejaVuSans-20" x="616.40625"/>
      <use xlink:href="#DejaVuSans-69" x="648.193359"/>
      <use xlink:href="#DejaVuSans-5f" x="675.976562"/>
      <use xlink:href="#DejaVuSans-69" x="725.976562"/>
      <use xlink:href="#DejaVuSans-6e" x="753.759766"/>
      <use xlink:href="#DejaVuSans-70" x="817.138672"/>
      <use xlink:href="#DejaVuSans-3d" x="880.615234"/>
      <use xlink:href="#DejaVuSans-31" x="964.404297"/>
      <use xlink:href="#DejaVuSans-30" x="1028.027344"/>
      <use xlink:href="#DejaVuSans-2e" x="1091.650391"/>
      <use xlink:href="#DejaVuSans-30" x="1123.4375"/>
      <use xlink:href="#DejaVuSans-75" x="1187.060547"/>
      <use xlink:href="#DejaVuSans-41" x="1250.439453"/>
     </g>
    </g>
    <g id="line2d_61">
     <path d="M 533.953125 216.751563 
L 543.953125 216.751563 
L 553.953125 216.751563 
" style="fill: none; stroke: #2ca02c; stroke-width: 1.5; stroke-linecap: square"/>
    </g>
    <g id="text_32">
     <!-- VStor=2.0V, i_inp=100.0uA -->
     <g transform="translate(561.953125 220.251563) scale(0.1 -0.1)">
      <use xlink:href="#DejaVuSans-56"/>
      <use xlink:href="#DejaVuSans-53" x="68.408203"/>
      <use xlink:href="#DejaVuSans-74" x="131.884766"/>
      <use xlink:href="#DejaVuSans-6f" x="171.09375"/>
      <use xlink:href="#DejaVuSans-72" x="232.275391"/>
      <use xlink:href="#DejaVuSans-3d" x="273.388672"/>
      <use xlink:href="#DejaVuSans-32" x="357.177734"/>
      <use xlink:href="#DejaVuSans-2e" x="420.800781"/>
      <use xlink:href="#DejaVuSans-30" x="452.587891"/>
      <use xlink:href="#DejaVuSans-56" x="516.210938"/>
      <use xlink:href="#DejaVuSans-2c" x="584.619141"/>
      <use xlink:href="#DejaVuSans-20" x="616.40625"/>
      <use xlink:href="#DejaVuSans-69" x="648.193359"/>
      <use xlink:href="#DejaVuSans-5f" x="675.976562"/>
      <use xlink:href="#DejaVuSans-69" x="725.976562"/>
      <use xlink:href="#DejaVuSans-6e" x="753.759766"/>
      <use xlink:href="#DejaVuSans-70" x="817.138672"/>
      <use xlink:href="#DejaVuSans-3d" x="880.615234"/>
      <use xlink:href="#DejaVuSans-31" x="964.404297"/>
      <use xlink:href="#DejaVuSans-30" x="1028.027344"/>
      <use xlink:href="#DejaVuSans-30" x="1091.650391"/>
      <use xlink:href="#DejaVuSans-2e" x="1155.273438"/>
      <use xlink:href="#DejaVuSans-30" x="1187.060547"/>
      <use xlink:href="#DejaVuSans-75" x="1250.683594"/>
      <use xlink:href="#DejaVuSans-41" x="1314.0625"/>
     </g>
    </g>
    <g id="line2d_62">
     <path d="M 533.953125 231.707813 
L 543.953125 231.707813 
L 553.953125 231.707813 
" style="fill: none; stroke: #d62728; stroke-width: 1.5; stroke-linecap: square"/>
    </g>
    <g id="text_33">
     <!-- VStor=3.0V, i_inp=100.0uA -->
     <g transform="translate(561.953125 235.207813) scale(0.1 -0.1)">
      <use xlink:href="#DejaVuSans-56"/>
      <use xlink:href="#DejaVuSans-53" x="68.408203"/>
      <use xlink:href="#DejaVuSans-74" x="131.884766"/>
      <use xlink:href="#DejaVuSans-6f" x="171.09375"/>
      <use xlink:href="#DejaVuSans-72" x="232.275391"/>
      <use xlink:href="#DejaVuSans-3d" x="273.388672"/>
      <use xlink:href="#DejaVuSans-33" x="357.177734"/>
      <use xlink:href="#DejaVuSans-2e" x="420.800781"/>
      <use xlink:href="#DejaVuSans-30" x="452.587891"/>
      <use xlink:href="#DejaVuSans-56" x="516.210938"/>
      <use xlink:href="#DejaVuSans-2c" x="584.619141"/>
      <use xlink:href="#DejaVuSans-20" x="616.40625"/>
      <use xlink:href="#DejaVuSans-69" x="648.193359"/>
      <use xlink:href="#DejaVuSans-5f" x="675.976562"/>
      <use xlink:href="#DejaVuSans-69" x="725.976562"/>
      <use xlink:href="#DejaVuSans-6e" x="753.759766"/>
      <use xlink:href="#DejaVuSans-70" x="817.138672"/>
      <use xlink:href="#DejaVuSans-3d" x="880.615234"/>
      <use xlink:href="#DejaVuSans-31" x="964.404297"/>
      <use xlink:href="#DejaVuSans-30" x="1028.027344"/>
      <use xlink:href="#DejaVuSans-30" x="1091.650391"/>
      <use xlink:href="#DejaVuSans-2e" x="1155.273438"/>
      <use xlink:href="#DejaVuSans-30" x="1187.060547"/>
      <use xlink:href="#DejaVuSans-75" x="1250.683594"/>
      <use xlink:href="#DejaVuSans-41" x="1314.0625"/>
     </g>
    </g>
   </g>
  </g>
 </g>
 <defs>
  <clipPath id="p67b358ada1">
   <rect x="47.38125" y="10.8" width="661.81875" height="235.765625"/>
  </clipPath>
 </defs>
</svg>
